<mxfile host="app.diagrams.net" modified="2022-03-02T02:25:35.809Z" agent="5.0 (Windows NT 10.0; Win64; x64) AppleWebKit/537.36 (KHTML, like Gecko) Chrome/98.0.4758.102 Safari/537.36" etag="zuZIO84Gnvd09VtjZqmS" version="16.6.4" type="github">
  <diagram id="brET5cVnGIjjLxq7x5VK" name="审批中心">
    <mxGraphModel dx="2249" dy="762" grid="1" gridSize="10" guides="1" tooltips="1" connect="1" arrows="1" fold="1" page="1" pageScale="1" pageWidth="827" pageHeight="1169" math="0" shadow="0">
      <root>
        <mxCell id="0" />
        <mxCell id="1" parent="0" />
        <mxCell id="6PJePOH17XFQJYxahg0o-1" value="" style="rounded=0;html=1;jettySize=auto;orthogonalLoop=1;fontSize=11;endArrow=classic;endFill=1;endSize=8;strokeWidth=1;shadow=0;labelBackgroundColor=none;edgeStyle=orthogonalEdgeStyle;" edge="1" parent="1" source="6PJePOH17XFQJYxahg0o-2" target="6PJePOH17XFQJYxahg0o-5">
          <mxGeometry relative="1" as="geometry" />
        </mxCell>
        <mxCell id="6PJePOH17XFQJYxahg0o-2" value="列表数据遍历每项数据逻辑判断" style="rounded=1;whiteSpace=wrap;html=1;fontSize=12;glass=0;strokeWidth=1;shadow=0;" vertex="1" parent="1">
          <mxGeometry x="300" y="100" width="120" height="40" as="geometry" />
        </mxCell>
        <mxCell id="6PJePOH17XFQJYxahg0o-3" value="Yes" style="rounded=0;html=1;jettySize=auto;orthogonalLoop=1;fontSize=11;endArrow=classic;endFill=1;endSize=8;strokeWidth=1;shadow=0;labelBackgroundColor=none;edgeStyle=orthogonalEdgeStyle;" edge="1" parent="1" source="6PJePOH17XFQJYxahg0o-5" target="6PJePOH17XFQJYxahg0o-9">
          <mxGeometry y="20" relative="1" as="geometry">
            <mxPoint as="offset" />
          </mxGeometry>
        </mxCell>
        <mxCell id="6PJePOH17XFQJYxahg0o-4" value="No" style="edgeStyle=orthogonalEdgeStyle;rounded=0;html=1;jettySize=auto;orthogonalLoop=1;fontSize=11;endArrow=block;endFill=0;endSize=8;strokeWidth=1;shadow=0;labelBackgroundColor=none;entryX=0.5;entryY=0;entryDx=0;entryDy=0;" edge="1" parent="1" source="6PJePOH17XFQJYxahg0o-5" target="6PJePOH17XFQJYxahg0o-14">
          <mxGeometry y="10" relative="1" as="geometry">
            <mxPoint as="offset" />
            <mxPoint x="470" y="230" as="targetPoint" />
          </mxGeometry>
        </mxCell>
        <mxCell id="6PJePOH17XFQJYxahg0o-5" value="申请状态是&lt;br&gt;否为待审批" style="rhombus;whiteSpace=wrap;html=1;shadow=0;fontFamily=Helvetica;fontSize=12;align=center;strokeWidth=1;spacing=6;spacingTop=-4;" vertex="1" parent="1">
          <mxGeometry x="310" y="190" width="100" height="80" as="geometry" />
        </mxCell>
        <mxCell id="6PJePOH17XFQJYxahg0o-7" value="Yes" style="rounded=0;html=1;jettySize=auto;orthogonalLoop=1;fontSize=11;endArrow=classic;endFill=1;strokeWidth=1;shadow=0;labelBackgroundColor=none;edgeStyle=orthogonalEdgeStyle;" edge="1" parent="1" source="6PJePOH17XFQJYxahg0o-9" target="6PJePOH17XFQJYxahg0o-10">
          <mxGeometry x="0.3333" y="20" relative="1" as="geometry">
            <mxPoint as="offset" />
          </mxGeometry>
        </mxCell>
        <mxCell id="6PJePOH17XFQJYxahg0o-8" value="No" style="edgeStyle=orthogonalEdgeStyle;rounded=0;html=1;jettySize=auto;orthogonalLoop=1;fontSize=11;endArrow=block;endFill=0;endSize=8;strokeWidth=1;shadow=0;labelBackgroundColor=none;entryX=0;entryY=0.5;entryDx=0;entryDy=0;" edge="1" parent="1" source="6PJePOH17XFQJYxahg0o-9" target="6PJePOH17XFQJYxahg0o-14">
          <mxGeometry y="10" relative="1" as="geometry">
            <mxPoint as="offset" />
            <mxPoint x="530" y="375" as="targetPoint" />
          </mxGeometry>
        </mxCell>
        <mxCell id="6PJePOH17XFQJYxahg0o-9" value="平台登录的用户&lt;br&gt;角色是否有审批权限" style="rhombus;whiteSpace=wrap;html=1;shadow=0;fontFamily=Helvetica;fontSize=12;align=center;strokeWidth=1;spacing=6;spacingTop=-4;" vertex="1" parent="1">
          <mxGeometry x="290" y="310" width="140" height="90" as="geometry" />
        </mxCell>
        <mxCell id="6PJePOH17XFQJYxahg0o-21" value="Yes" style="edgeStyle=orthogonalEdgeStyle;rounded=0;orthogonalLoop=1;jettySize=auto;html=1;" edge="1" parent="1" source="6PJePOH17XFQJYxahg0o-10" target="6PJePOH17XFQJYxahg0o-20">
          <mxGeometry x="0.4545" y="20" relative="1" as="geometry">
            <mxPoint as="offset" />
          </mxGeometry>
        </mxCell>
        <mxCell id="6PJePOH17XFQJYxahg0o-10" value="审批人和登录人是否是同一人" style="rounded=1;whiteSpace=wrap;html=1;fontSize=12;glass=0;strokeWidth=1;shadow=0;" vertex="1" parent="1">
          <mxGeometry x="300" y="460" width="120" height="40" as="geometry" />
        </mxCell>
        <mxCell id="6PJePOH17XFQJYxahg0o-14" value="不能进行审批操作" style="rounded=1;whiteSpace=wrap;html=1;fontSize=12;glass=0;strokeWidth=1;shadow=0;fillColor=#f8cecc;strokeColor=#b85450;" vertex="1" parent="1">
          <mxGeometry x="480" y="335" width="120" height="40" as="geometry" />
        </mxCell>
        <mxCell id="6PJePOH17XFQJYxahg0o-16" value="" style="edgeStyle=orthogonalEdgeStyle;rounded=0;orthogonalLoop=1;jettySize=auto;html=1;dashed=1;exitX=1;exitY=0.5;exitDx=0;exitDy=0;" edge="1" parent="1" source="6PJePOH17XFQJYxahg0o-17" target="6PJePOH17XFQJYxahg0o-9">
          <mxGeometry relative="1" as="geometry">
            <mxPoint x="172" y="375" as="sourcePoint" />
          </mxGeometry>
        </mxCell>
        <mxCell id="6PJePOH17XFQJYxahg0o-17" value="" style="shape=image;verticalLabelPosition=bottom;labelBackgroundColor=default;verticalAlign=top;aspect=fixed;imageAspect=0;image=data:image/png,iVBORw0KGgoAAAANSUhEUgAAAZIAAAC2CAYAAADzyAtuAAAexklEQVR4nO3df0xb56E38G9LWSdFaqVJAe+9hXaBZWh13IaL0iQKrbho5WYnsQKqsqlKoiHkWHbTK3fWEKmgb25BuxGSF7Q0WB5C7JJo2qIKKgd3IxJvkzpKaERNaozEqpCtkEy2M2kK0n7kD8r7xzm2j4/P8Q+OwQa+H6lqOD7n+Ikf83zP8+OcPLGysrICIiKiVXqy0AUgIqKNjUFCRES6PKW28dPJL9a7HEREtEG8uvelpJ9VgwQA/t30vTUvDFEhfR78I7/nRY51VHw+D/4xZRuHtoiISBcGCRER6cIgISIiXRgkRESkC4OEiIh0YZAQEZEuDBIiItKFQUJERLowSIiISBcGCRER6ZLfILkziKo9R1G1ZxDTuRwXHYd9z1FU7emEN5rXEhGtHen7fuFOpn3kvw8hXFjN70ha0jnPhzLvk+1/jnE8zFv5CiUKr0P8+9ivpGtYpP2kv/PDK52yeo2dQ61tkl6Lfe7xdkztP2V9K84bOzZtHRYvzWdt5Sw6DvvJcemHcbyxZzz59ePvYf5to9qB8P58EOLeX+KdQ0fxjvzl/W2Y7GvC9rwVlGi9ROH9tfjNfsPxHCb7mnD//Pv4BQAcfwW7sz3NnUFUnRxP8zuUDSPeun0Zb8m2TJ8/ijcu7sS5sR6Yy1Z52qJWhooqADeB8T9HAazPX7Kp6wP0H068l/g5K3aKTuMPNwHsr8e+MuDhFT/GAfy0frX1W1j5CZLoOOyHxDD46a8u462XVbZrfEDT50/hnZuK4xCF1yFub2rczRChAkt8H9X84uRRMRzkpAsgc99lVJw/igEAt8534p1Yg3LxfVQpGxdANSym/eMAduLcj4x4eKUTe7u/VC+I6jljQaH1d1C5eNMoR3FLX0eqn80qLlIfXunE3ol6TPb9Gy7vkS4Kbr6PqotN+HDsOQDAePcpVHWnP8/078R2UWzfQrgg1anqdwnK9rH46A4S5Rdb64OIbU+ktazi97fhqPxDunMlvv2/D2/KSyXaUMpg7rsMs/ST8gqzaf9OjN/8UvOXfffbl9GPEC7s+RKJhl2xk+yiS7l94CLiV67bD/dg/rD0WqynErN/J5pufolx1RBI/jvEfm+VV88bXxM+vN2WobcXwoVYCCR9hoPYu+c+znWpH7X4u068c/FLYP93cD/ahLduf4AKxym8U5X4vPtvN2Uu4p1B6fuzE//5ShkeXvklfoGdOPerevzh5CDGN+AojP4eySs/xrn978cb/tgHkNJtVnzpYz0RAMDNQezdM5h6btn2Yk9k2uzkV7xSYyV9p1/8SQ/6+6Q5CKQObYiMiYZH2QM4/h7mf6T+rg8/k4Y8fpJoWOQXb+LvhdQwVv0Y/X1GTJ8/iqo9kP0+al+tp7163lC9kuSgjFEPzORhvvnbh8XPB+LnhSudAKSL3/1N+CkA4Ev84iLS9GKUn7HYQxmQXxzsbxN7MvLwRwiXu78Ejr8H8/95gD/o/RgKRHeQbC8zwtz3HhZjCZ+l3W9fxny9+IuYqOTYlULiqiJtV55oPaT0FpLnAJW9cLFx3olzvd/BO+3Sfsffw/zbUkMWb4xkV8aqpEYGTdj/MqA2fJP03srhG+lCrKnrA/THG9nEe26+i7McAlMtEG4OYq8D+LBR/FH8fKLwOsa1jwHEzx1tOAfpIqLiCqpOxl4UL6YrfncUb8wDiD7ArPzYzz4T27u3jUD0QaIcsgvrjdBrzN9kO6DSs9AYfyXaSMqa0H+7Sbqogfbk9B3lhRFgvv1Kalho9cAVHl75rTQcfFgaqpGuuqVgg2YDI4WFSsM3fT5RFq1haGCjh0zqhWjqxapEPlKyP9Yj8auccyfOvas13LQT5360G/i5FFhSGURiGyieH0DZbvxn13uw/Pl9cXjrlTbM31acbksObcnlMLQll9q9Vln1RVQU8nBxlFWPJIpbE2JvxKJxNZrNpK7cwyud8bkdraBQXWG04aS2H5qf1cttsqGtHMjbs+M/hrmsDFDOQR36E86NXUa/ovrMh8swfT6XNyt++QmSO59JqxdW1yPZCF03IlGa5bJpLpZyFltwkmaZsPbvjUpA3RnMalHM5pBDjyRH4vm+gw9vKwJIo+6T27/Nu9Q6L0EiLk9M/mLn0iPJTKx8bOjuNm0Oq+2RfIYLDumPWQxtyZf8asm+RyLez9LU9QH+G7/E3m7tFWZbrkeSzuI47L++jxdTXvgTFqPAbnkgvNyG+dttUAuqnC+Uld+PDTDUpT9IFEvZtDxc/JPma+MT03h4OM0HFevx+EN46+WNsoqENpukpbe5ujgO/OoDVPx6XLVheHjlt+J9BS+UpSz5TSHN2WQvsaLp4RVxC3sk2u7/Wbqno/s+Prx9GIuOccVrTahQqRf5e03il9J82n8BPz+FqokcwmADBIeS/iB5uQ2TXX/C/8V/qXfZPhtEVXesIhRh83IbPjw+jjcuZjH5uL8NkxtmKSJtLqsZDoktEf4saRUi0tyPguPvof9wGabPD6Ys+YXWMVlQ631szh6J+hLgZIo7/GUr8pq6xJsDL19M7kXs/kkT3rk5Hp80b+o6jN3y4xrLZCMwl2EuSwR2rEz7rnRi7x7/ph3aemJlZWVFufHTyS/w76bvFaI8ROvm8+Af+T0vcqyj4vN58I94de9LSdv49F8iItKFQUJERLowSIiISBcGCRER6cIgISIiXRgkRESkC4OEiIh0YZAQEZEuDBIiItKFQUJERLpoPiKFiIhIjfIRKZoPbVTuSLTZfDr5Bb/nRY51VHzUOhoc2iIiIl0YJEREpAuDhIiIdGGQEBGRLgwSIiLShUFCRES6MEiIiEgXBgkREemieUMiESU7deoUpqenV3VsaWkprl27lucSkRLrqDAKHyQBDwwDzyHoFlBW6LIQpTE7O4uZ+s/x1Hdz7Mh/Dfzt5D/XplCUhHVUGHkMkiD6jJdQOdGLlnIgOtoOU9ecyn4CxkJW1MWOOTGP/gkryhBEn7ETZ9VOXW9VBI20b2sPwk5T0q7R0XaY7h1TbI9gxGaB3Z9cjv7uedhVy6gsZ7q/j+yI7gEMNpen3Yc2tpIXnkTp90sKXQxKg3W0/tasR1LW3ItwMzDlMuNGgxeOWkAMgFvxfaKjlzDT7YSjHABMcIS8OJC0fywYKmQhEsGITQqcoU4YhmRvWl8DwT8HQLndiqDbizAiGLG5gDOJsEMsjJJ6RsnljEkXFNHRdpxe1SdFm9EzJc8CAJaWHxW4JKSFdZQ/+oMk4kNbowe+2M+NZthRg/6JXrSUR7BwtwaVx2L7LmIGwAEACHiknkO52IifmEf/hBO4C6AhfnLcuAr0n0n0LqZcFtj9Um9BftwZC+z+Oewa9mIQse1iYKSlCCOT0SP9ScCYns+FtqxnSp7F6IsfY2l5Cc2zBwtdHFLBOsov/UFSLmAwJEA5tAUA0VEX7HgNQXljXv8cKgFMfeIDhnxSIy5gLNSLOkQwAmDmqwhQWw4EPoK9+hjCsuPrjlkhDHlwyBiPLtgbLfE/nz1hjg+P2RvNsAPoGE70cFLk0CPxdVlg6NL+KIRu7ddoa4g1UJXffB5HQmygihHrKP/WbrI94IHp6msIugVgtB0GaX5B6B5AGYAypxdhZwQjoxG0NCfPc/iuTiHaLABfzSfCRj5PkjJnokWcG1nIw18nNlRHpEXZQM3+Y6bQRSIF1tHa0B0kUy4zDsnnI2S9gLBb2qbaCCcmwO1dkMJBmtr2e/CbgACHdJw4/1CXFBw3XGbYh5TnlJGfT1nORjPsENDfjeyGtgIeGE4kekDppO390KZS8XQlFh+LlylsoIoT62h96A6SOqcXYaf4Z7HBd0oT0morpYD4aqjAR7D7lQ1vEAv+GvR3V8E+4MOb0jDTb7oAYUIa3yoXMOgGplwe7cnvgAeGAQAoR4vbK26rlXpAq51sz9gLyl/vh4rfzyreheXbNjSHfojFxwtsoIoQ62j95GVoK7Yy602V15KCIuJDW+N98c+1VoRD1uSdA7dwFlUYaz6C/qsW/CYg4MAn0jJflbxIO2dRb9V4IaGsuRdh1VdMcIRMqq/ETLnMcO/gct+tyvOXCzj4rUMYNX6MxX8tsIEqQqyj9ZOHIIlgQbbSKta4C909EDIem7h3ROgegO2eD2jtQR3KUXfGirZGM85CwJhGo67vvg31HlNiaCvzMNWu5xkiW9XS8iMcCR3ER8bfs4EqUqyj9ZOfIPEDZ6uDeHOHvHGPYORq8ioqkQAbYnMWNeif8Iq9jYgPbV016J8QQyN687q0pHgeCxGgLtceifRe8psKRXPSai4BYyFvokeSyx32ER/cQ4BvyKx6UyRtDbGGquLpSjZQRYp1tD70B0ngFs7WC+i42wnTkHwJrDg/0aJ1nGxuBYhg5IwH6B5AS3mspyCGTMsDDwyNZvhUeh9peyTyYTR576O1B2F3jg1/rVVaOJA4j9A9gHBzOaKj7TAYpTveW3sQ5kT7lrK0/IgNVJFjHa09/au2PvGhw+KFo9YKR8ADw4lMvQQkJrhjAh/BXt2DcHMEfcZOzHQPIOyOTa5bEQ7tQ5/RAsO95OOy6ZHYxJOkhJrWI0/kQ1uot+L/vX4d/xHfT9aDkiQtCw54YDB28lEpRLSlPLGysrKi3Pjp5Bd4de9LhSgP0brJ9Xve0NCAO82TKN2V23OcVpaBv/7g71D5VaMMWEfFR61OCv/0X6INYtu2bfi66xt4vIpjt2/fnvfyUCrWUWEwSIiyNDbGp68VO9ZRYfBfSCQiIl0YJEREpAuDhIiIdGGQEBGRLgwSIiLShUFCRES6MEiIiEgXBgkREemi+YgUIiIiNVk/IoXP2qLNjs+UK36so+Kj1tHg0BYREenCICEiIl0YJEREpAuDhIiIdGGQEBGRLgwSIiLShUFCRES6MEiIiEgX/lO7RFk6deoUpqenV3VsaWkprl27lucSkRLrqDAYJERZmp2dxUz953jquzl25L8G/nbyn2tTKErCOiqMPARJEH3GTpzNen8BYyEr6tReCnhgGHgOQbeAspzLcAmVE71oKU+3XwQjNgsWLF44alXe+5N9CDtNGufvxNnWnpTXo6PtMN07ptguvo/dL99TQH/3POxdcxplS/O5aL6Pxn6a7yG9U/cABpvTflCkoeSFJ1H6/ZJCF4PSYB2tvzwEiQmOkBcOxdZsG76k/buqMBZKhMiUy4wbDSqNvkoZ3uwGTGd8OJBzCElq96HjRCf6Ut4vghGbFJRDnTAMyV6qr4HgnwOg3G5F0O1FGBGM2FzAGTHgoqPtQCyMkkIziD7jrbTFW7g3B2FHdo1/uqCIjrbjdFZnIT2eKXkWALC0/KjAJSEtrKP8yc/QVsSHtsb7sKW5otbuNUhX79U9CIeSQ6fO6QVcZvRB1rgHPDCc8Gm8xxxMRk/K1o5htTBS6zUAOGFO9K7qrbhY7YHdL/UWAh4YTsyjf8IJnLHA7p/DrmEvBhHbnqlHhJQwSpRXwJjmQREs3AWwI8O5qSg8U/IsRl/8GEvLS2iePVjo4pAK1lF+5SdIygUMDntgMLarN6YRH9oaPdg17E1+Ld4wexGOb1dp4IfMgDwM6q1ZDn9JQ1kQezeHYg2434yz8V4D0g+pRQBhyINDxkR42Rst8T+flQWPvdEMO7SCS7KqHkkEC37AVx0BkLlX4uuywNCl/brQnfEUtEqxBqrym8/jSIgNVDFiHeVf/ibba60ID3tgkIaXEoLoa7wOYUItRMTGOdYAi2oUwSKaivdMrAi7U99eHLJxKoZ0ytHi9krl8yLsVJsjCaIvKURU9llFcOVVZBEzADB0C1NOU5peH1DW3Itwc74LQNlQNlCz/5gpdJFIgXW0NvK7akvWyEfjG01whHrV9w1Zsz513TEr3Gd8iMav4NUm+JVX4jXJPaTAR7D7AQHtaHvdicFmYMR2Cwfc1qQQ8b0+gEFFj+KGywz7ELTVWxF0J5r4pB5Qoxl2COjvxqqGtqYueeBr7cEYOnEjYEWdVm8n7bBfsrS9JspKxdOVWHwsXjawgSpOrKP1oTtIkhrMFIpJ6Jj46ieNeYoU4hzFoDt1W6zpTu2RiHMyCRGMDMxDqAd8/jnALwsd2bAVWnsQbi6XTfQLGHQDUy6P9iR2wAPDAKDeA9I72R7EjaEa9E+YUAd5mGrI2Htao17TFvOzindh+bYNzaEfYvHxAhuoIsQ6Wj+6g6TO6UXYmbo9+1VbNeknqaWJ/FS+pHkLkUqPJF4eF3yvH4NwtRO7lFfj0hwOpKCYcplx6K4VQcXfK+3cQ33m3lVZc684J5PCBEdI/XOacknLjssBQICt2ozTo3VZL9+dcpnh3sHlvvnm+csFHPzWIYwaP8bivxbYQBUh1tH62cA3JObWI1m4VwWbsxwLV+XniPWIxHmZlvIIRmxmcQWZO7Vh13f/hXrvS77KLGW4KeDBoSEBY7KQqXP2YJfRhZH9WawQk+x6niGSb0vLj3AkdBAfGX/PBqpIsY7WzwYOktx6JHVOK4BIYkhHmk/oGPaK8zoBDwyN4vmE19Ub3kyrodRvKpyTFhMIGAt5Ez2STDdfysqXfD4THMNVMDS2A5mWG0d8cA8BviGz6s2UpE+soap4upINVJFiHa2PIgiSOcWqLTUCbCrbcpsjUYhN9kd8aDN64JMa+jqp52DoSg2FtD2SpCE4We+jVb13k454cyakXpJG2Yc9MDSa4ZOXKb7YIfH+QvcAws3liI62w2CU7nhv7UGYE+15sbT8iA1UkWMdrb0iCJLVzJFozykk76OyWixxYqmxFQNkML5dnDA/MNoOk82X1GPIpkdik52jRfaK1qNLkm6glG6APH7XimAow3LjWivCoX3oM1pguNeD4I5LsvOnLqFOWhYc8MBg7OSjUogoL55YWVlZUW78dPILvLr3pUKUh2jd5Po9b2howJ3mSZTuyu05TivLwF9/8Heo/KpRBqyj4qNWJ0XQIyHaGLZt24avu76Bx6s4dvv27XkvD6ViHRUGg4QoS2Nj2k9Do+LAOioM/guJRESkC4OEiIh0YZAQEZEuDBIiItKFQUJERLowSIiISBcGCRER6cIgISIiXTQfkUJERKQm60ek8FlbtNnxmXLFj3VUfNQ6GhzaIiIiXRgkRESkC4OEiIh0YZAQEZEuDBIiItKFQUJERLowSIiISBcGCRER6cJ/apcoS6dOncL09PSqji0tLcW1a9fyXCJSYh0VBoOEKEuzs7OYqf8cT303x47818DfTv5zbQpFSVhHhaE/SCI+tF2qwKDTBAQ8MJzwKXYQMBayok7cGSM2CxYsXjj+TXac+okxYnMBZ45hofESKid60VKuXYzoaDtM944hrHk+2X5dc2n3EboHMNic5s1oyyp54UmUfr+k0MWgNFhH609/kJQLsMEMg6sH4QYA9VYE3QLKAABB9BlvSf+/hMoJZ8pxbaOZGm0THBOvoa3Rg8p4IKVauDcHYUd2jX+6oIiOtuN0Vmch0vZMybMAgKXlRwUuCWlhHeVPXibb65w96Bi6hJGvpA0RH9qMHkxlcdyuLgv6Ahl2LBcwmCZEgAgW7uZSYqK180zJsxh98WP8b81vC10U0sA6yi/dPZIplxk3GrxwhHqBgAf2nI42wTExgGh5EH3GTpxV26XRnDhna4/G0FUEC37AVx0BkLlX4uuywNCl/brQnfEURKpiDVTlN5/HkdDBQheHVLCO8k93kNQds8Ld2I6RiV60ZH2UOFdi9yM+FOYIeeFQ2WfB4oWjNtPpFjEDAEO3MOU0pem5AGXNvQg3Z11QoqwpG6jZf8wUukikwDpaG3mZIxkcvg/DGR8OWLI+CC1uL1oiPrSd0d6nshpYyOJsU5c88LX2YAyduBGwok4reFQXA6jrGM4iwGhLq3i6EouPxW8oG6jixDpaH/lZ/ltrRdgNIOBJbKt/DpVZn0DWQ4kT0NEKzHwVAWrTDVcFcWOoBv0TJtTBCvcZH6LxyX4VSYsBtMuSTYDR1vWzindh+bYNzaEfYvHxAhuoIsQ6Wj/5ubNdObn+4D6yu+6PEXso4dAA+utr0D/hRThkxZs7ajIeOeXqxNnWY+LS4HIBtmoPTo9Gsn7nKZcZbTnsTwQAnr9cwP3Hixg1fswGqkixjtZPXoIkevM6fK37UFdrRdgtYOETH1BdgTKY4Ei72iomiD5XMGVr2fNV8F2dQhQQw8rmE/8cE/Dg0JCAMdkEvLgSzIWRHLJh1/O8Z4Rys7T8CEdCB3H/8SIbqCLFOlo/eQiSCG5cnUNHg9SYS417BzphiDf8JjhCWjcUXsdpYydm1O4Bqd2HDv913IhA7OVUVySGpKT5jo5hZVCZ4Biugr2xPXOYRHxwDwFnT5hhUAkyonRiDRUbqOLFOlof+oMkMgWfX8CBWvFmPsOJefRPWOFwehF8/TpMyl6E3IP78PnngKQbBOdgbzTDYDSjL2DCgdY52C8lN/KJ99GYEK+1IjxcBXujYthK6jGVIYIRmxmGRg/QPYBwyIvgjkswGM0wGC2wV/dwop2ysrT8iA1UkWMdrT39k+0P7sPXug//M9oO09XXEAwlJrLLmnsxds+M06PAri6PdJ+IgDG3+Hr0q3npLnNgxGZOLAeWnQO1A+i3WWAYAjqGrZhymXHormIfNbVWhEP70Ge0wHCvB8Edl2SPRpHmYWSdoKRlwQEPDMZOPiqFiCgLT6ysrKwoN346+QVe3ftSIcpDtG5y/Z43NDTgTvMkSnfl9hynlWXgrz/4O1R+1SgD1lHxUasTPv2XKEvbtm3D113fwONVHLt9+/a8l4dSsY4Kg0FClKWxsbFCF4EyYB0VBv+FRCIi0oVBQkREujBIiIhIFwYJERHpwiAhIiJdGCRERKQLg4SIiHRhkBARkS6aj0ghIiJSk/UjUvisLdrs+Ey54sc6Kj5qHQ0ObRERkS4MEiIi0oVBQkREujBIiIhIFwYJERHpwiAhIiJdGCRERKQLg4SIiHThP7VLlKVTp05henp6VceWlpbi2rVreS4RUXFgkBBlaXZ2FjP1n+Op7+bYkf8a+NvJf65NoYiKQP6GtgIeGFxBzZenXGa0jUZUXolgxGZGXyB5a3S0XWN/+aE+tBnbMZJht1RB9K3qONrqSl54EqXfL8ntP2NJoYtNtKYK3yOJTMHnF2BzB9FnvITKiV60lGd1IEbOeOAD4Gs0w654tWPYC0etxnG2TpwFgJTjBIyFrKhbxV+DSO6ZkmcBAEvLjwpcEqK1pz9IAh4YTvikH3wwDKXb2QJDFyB0D2CwWUyLqUseoHsAdYjgRsr+U+gzesRGX9HIT7ks8L0+gLBbnjoRjNjE7eohIh63YPEi7EbKcfbqfQwR0u2Zkmcx+uLHWFpeQvPswUIXh2jN6Q+SWivCIasYKJ/sQ9hpUt1tymWGe0ciQAAAER/cQwJsoXIAEQBzsCf1EqpgC3kRRhB9xluxg8RG3w/EgimFX7a9tUcqk3jcgiW1pzLlssBe3aNZdqJsxUKk8pvP40iIIUJbQ36HtoY60/ZIhG75T7GhKQG2iA9tjR74UIN+aWgrOtqO0ziS0kMQexQ96PDfwgH5MFTAA8PAcwi6BZTJt32SOM6OGggnzDColk5e9kQ5iLKlDJHZf8wUukhE6yK/QdKqfVU/5TJDPpoUHXXBXi2gww+gXMBgqAJ9xkvq540sYgbAAQB1Ti/qEERfjkWrc3oRjvjQdua1pLARA8sp6ylFMGJz5Xh22ooqnq7E4uMFAAwR2toK1iNZuFeFMec+3Bi6pX2AXP1zqEza4MMhoy9lN5PRk7yhdV925yfKwc8q3oXl2zY0h36IxccLDBHa0grWI6lzWgEEVSbYk46KT7YL3QOJISsAKSusMgxtxfk9qWGTMtdSg/605aKtzvOXCzj4rUMYNX6MxX8tMERoS9MdJFMuMw7FeyHZrdpCvTW5wddUB0dIgAMQ7xlxVWDQaZKGunw4u5oeScb35tAWZba0/AhHQgfxkfH3DBHa8nQHSZ3Ti7BTtiESQbS8PNFQK3/W4+4iojABN6/Dp+z9ZNsjyagcLe7efJSWNrlYmFQ8XckQoS0tb3e2R0fbYTCaYWi04LTsjvTog49w2mgWX7P5ENU8Qzkq6+ew8ED8qay5N2mpcPTmdfiqK1CGCG5cnUNHwyqX6vrvYyHbv0+aO/WJADFMGCK01eVtaEvoHkA4lLpetqzWisGQVfwh4kOb0ZzamwAAlOPA6zUwnTBLNyAqCRgLmYCAB3ZYEdS44VB8/Eln/Bwdw1bZW9RBqPeoTtKnqkH/BO8rISLK5ImVlZUV5cZPJ7/Aq3tfKkR5iNZNrt/zhoYG3GmeROmu3J6dtbIM/PUHf4fKrxplwLao+KjVSeGftUW0QWzbtg1fd30Dj1dx7Pbt2/NeHqJiwSAhytLY2Fihi0BUlPgvJBIRkS4MEiIi0oVBQkREujBIiIhIFwYJERHpwiAhIiJdGCRERKQLg4SIiHTRfEQKERGRGuUjUlSDhIiIKFsc2iIiIl0YJEREpMv/B5Isv8z5cNXpAAAAAElFTkSuQmCC;dashed=1;imageBorder=default;" vertex="1" parent="1">
          <mxGeometry x="-140" y="272" width="366.66" height="166" as="geometry" />
        </mxCell>
        <mxCell id="6PJePOH17XFQJYxahg0o-19" value="" style="edgeStyle=orthogonalEdgeStyle;rounded=0;orthogonalLoop=1;jettySize=auto;html=1;dashed=1;" edge="1" parent="1" source="6PJePOH17XFQJYxahg0o-18" target="6PJePOH17XFQJYxahg0o-10">
          <mxGeometry relative="1" as="geometry" />
        </mxCell>
        <mxCell id="6PJePOH17XFQJYxahg0o-18" value="配置产品时选择一个审批人" style="rounded=0;whiteSpace=wrap;html=1;dashed=1;" vertex="1" parent="1">
          <mxGeometry x="136.66" y="450" width="90" height="60" as="geometry" />
        </mxCell>
        <mxCell id="6PJePOH17XFQJYxahg0o-27" value="点击审批按钮，进入审批流程" style="edgeStyle=orthogonalEdgeStyle;rounded=0;orthogonalLoop=1;jettySize=auto;html=1;dashed=1;entryX=0;entryY=0.5;entryDx=0;entryDy=0;" edge="1" parent="1" source="6PJePOH17XFQJYxahg0o-20" target="6PJePOH17XFQJYxahg0o-26">
          <mxGeometry x="-0.6111" y="25" relative="1" as="geometry">
            <Array as="points">
              <mxPoint x="660" y="565" />
              <mxPoint x="660" y="103" />
            </Array>
            <mxPoint as="offset" />
          </mxGeometry>
        </mxCell>
        <mxCell id="6PJePOH17XFQJYxahg0o-20" value="可以进行审批操作" style="whiteSpace=wrap;html=1;rounded=1;glass=0;strokeWidth=1;shadow=0;" vertex="1" parent="1">
          <mxGeometry x="300" y="550" width="120" height="30" as="geometry" />
        </mxCell>
        <mxCell id="6PJePOH17XFQJYxahg0o-23" value="No" style="edgeStyle=orthogonalEdgeStyle;rounded=0;html=1;jettySize=auto;orthogonalLoop=1;fontSize=11;endArrow=block;endFill=0;endSize=8;strokeWidth=1;shadow=0;labelBackgroundColor=none;entryX=0.5;entryY=1;entryDx=0;entryDy=0;exitX=1;exitY=0.5;exitDx=0;exitDy=0;" edge="1" parent="1" source="6PJePOH17XFQJYxahg0o-10" target="6PJePOH17XFQJYxahg0o-14">
          <mxGeometry y="10" relative="1" as="geometry">
            <mxPoint as="offset" />
            <mxPoint x="440" y="385" as="sourcePoint" />
            <mxPoint x="490" y="385" as="targetPoint" />
          </mxGeometry>
        </mxCell>
        <mxCell id="6PJePOH17XFQJYxahg0o-30" value="" style="edgeStyle=orthogonalEdgeStyle;rounded=0;orthogonalLoop=1;jettySize=auto;html=1;" edge="1" parent="1" source="6PJePOH17XFQJYxahg0o-26" target="6PJePOH17XFQJYxahg0o-29">
          <mxGeometry relative="1" as="geometry" />
        </mxCell>
        <mxCell id="6PJePOH17XFQJYxahg0o-26" value="审批流程" style="whiteSpace=wrap;html=1;rounded=1;glass=0;strokeWidth=1;shadow=0;" vertex="1" parent="1">
          <mxGeometry x="690" y="90" width="120" height="25" as="geometry" />
        </mxCell>
        <mxCell id="6PJePOH17XFQJYxahg0o-31" value="" style="edgeStyle=orthogonalEdgeStyle;rounded=0;orthogonalLoop=1;jettySize=auto;html=1;dashed=1;" edge="1" parent="1" source="6PJePOH17XFQJYxahg0o-28" target="6PJePOH17XFQJYxahg0o-29">
          <mxGeometry relative="1" as="geometry" />
        </mxCell>
        <mxCell id="6PJePOH17XFQJYxahg0o-28" value="" style="shape=image;verticalLabelPosition=bottom;labelBackgroundColor=default;verticalAlign=top;aspect=fixed;imageAspect=0;image=data:image/png,iVBORw0KGgoAAAANSUhEUgAAAaAAAADSCAYAAAAMqxQnAAAgAElEQVR4nO3deXhU1eHG8e9smSWTfd8JIUCAIJuACCqKG67VLtba1m5arV2t/Wlbrda2ttVabbVqW7u6VFtbxX1DkUUBWQKELWwhZN8nk8lMZrm/PwISFDBIwgV8P8+T58ncOffec2aS+86595w7FsMwDERERI4wq9kVEBGRjycFkIiImEIBJCIiplAAiYiIKRRAIiJiCgWQiIiYQgEkIiKmUACJiIgpFEAiImIKBZCIiJhCASQiIqZQAImIiCkUQCIi8p6B3J96sO5hPQQBFGbzM3/gB7f8jzWhAxTpWMhdX7+TJ6vChDe9wB0/epRFPqBrCXdf/TP+XtE7+NUSEZGD6u0Ns2bNJnp7wwcs09bWSWXllkEJIfthbyGwnYWvbaIltndRz7vv8Nc/dNKZ4+ScnL0ZZ8so4+yTi3D2NrH6pVVEvmYQ7VnPM/+sIe/bn2OmvYmKF5eT99noYVdLREQOTVycg9TUJNas2UR5+Uiczrh9nu/o8LF58w7GjCnBYrEc9v4OO4CiHUv5/VfvZuWwYeS49y4fXe5k/b/+xnoADPy7tlNz0k2sTajkkf8uYmuoDf+/HuXVqftP0WjTSuZvyef0GZnYDreSIiIyIAUFOVgsVtau3cS4cSNxuZwAdHZ2sXHjdsrKhpOY6B2UfR12ANlsHtJKxvO1e+7j/6a5AAgseJCrHrZy1YNXcYoHoIf5t36Vm9rdGP5mtm1rpSsawrazjpYTHGD00lm7nerkMAZgdFdw7zU3c3fPp5j3v6uY5DzcWoqIyEDl52dhtVpYu3Yz48aNJBwOs2HDNkaPLiYpKWHQ9mMZjG9EDa19ght+9ga1u8+cxdq28sYaCxNPHU7q7l6aLf8MfvKrTzHWCTQ9xRVTn2LcU3/jOz2/47RLHmdDxE751Z+k6J/zqEiz0+6dxT1/+zGfKo074H5FRGToNDQ0U11dRyxmMHp0MSkpSYO6/UEZhGD4drF8QQcFZ83hogvncP60PJyuPE46r+/xGbmtzH+3lq7+URfrpWHVWyxrMcA5hVtf/Dt/+XIRNiNIIHcuf3z0ZoWPiIiJvN54YrEYFgvExQ3+8fjwByHsEQ1QV7UFtwOiu7qIRizs3LwFwwrBugB9YxSi1M//O7/480ssDeyg5eePkX/raLC4SCsezUj7Riy2XD7zg+s4b5hj0KomIiKHpru7h8rKKkpLhxGLxVi3bjNjx5bi9XoGbR+DNwzbYsPl9ZKQ4CXR7cBiseNJ6Huc4La/t6NYcx0NzmSSnSO4/l/3c23JB6swCIMrRETkIwoEglRWVlFcXEB6egqZmWmUlBRSWVmF3989aPsZxHlAVuxxcTidccQ5rFgsNuL2PLbtSRQbeZ/5Mf/+1dmMclix220HrEC0/n9cd/4dPL1LQ7JFRI6Unp4Q69Ztpqgol8zM1PeWp6enMGJEEZWVW/D5/IOyr8E7BWcEaK6uYbsDog3dRCJQv70GbBBs6SF20HVD7HzxXn7QFiGye1GksYHNG1s52a1B2CIiR0IkEmHdus0UFOSQlZX+gefT0pKxWCxs3LiNSZPGYrcf3vF5UALIVX4Zf3z5E2SVDyfTAV1P38QLFVa+cOftXBQPocatXNPkotQF4R0refmt9dRErIy3xmjb1UhLz3Lu+nE9F/9wLk57OyuefYz7ggvYWHwKIwdnuLmIiHwIm83G6NHDSUiIP2CZ1NQkJk0ac9jhA4PVA0rMo3xS/wVW7Dbre6fXnFklTM7q+z2w7VVu/9ErdJVfyuRiB3FtuZx43pVc9n9f5KJRIV7vruKeV9/gFVcOX/nm+YzXHCARkSPCYrEcNHz2sNsHJzoGZR6QiIjIodLdsEVExBQKIBERMYUCSERETKEAEhERUyiARETEFAogERExhQJIRERMoQASERFTKIBERMQUCiARETGFAkhEREyhABIREVMogERExBQKIBERMYV9sL5aVURE5FCoByQiIqbQF9KJiIgp1AMSERFTKIBERMQUCiARETGFAkhEREyhABIREVMogERExBQKIBERMYUCSERETKEAEhERUyiARETEFAogERExhQJIRERMoQASERFTKIBERMQUCiARETGFAkhEREyhABIREVMogERExBQKIBERMYUCSERETKEAEhERUyiARETEFHazK/Bx0B2Azdugtxfi42F0CdiP0Vc+EonS0eEjGo1is9lISUnEZrOZXS0ROQZZDMMwzK7E8aq9E154HZqaYVwZuF3Q4YP1m6FsBJw9G+Ic71sp0srWaoNhJekYwQChiME+b5DFgs3pwW2HaP0q3qjJZ/bUDPaNgCgNi55lcfzZXDrRPShtCYcjVFfX4vN1k56ejMNhp7c3QmtrB0lJXoqK8rDbDzOIBtj2uOYj124RGTpHwefwKA3L5rMu6TTmjHr/0bhPpGYFr9UXcOakECuWRxl30jBsm99hYaScOWPi+5XsYO2iGlKnl5O3u2Uda5ewzjOVmSVHtqltHfDnx+Dic6C0GCyWvc+dOxuWroI/PQpXfQ4c/ZvduZWn7lzAiBuvo2T5P/nvinYCLg/xVoOe2o28vdXFJT+7g+9Md4GliwX33k/9LT/i8/u8dgYd6xazIOMMLp14+G0JhyNUVm6moCCXkpJCLP0aU1iYQ0tLO5WVVYwdW/q+EArw5r0/4y+rIwfdvn34HG794VkUDrDt3xx2ZNotIkNr6HpAgRaMnngsaR/8JBrZ9jq/+8sqmmO7H9dv4N1QMdOHuXaXsFF87pe5alZS36YW/I7rlp/G/V/fxfe/08NND12K96lb+G7gGv58Zc57n4KjNfP43p0RvnX32cTXNOOLRKmf9weeTL+ab89wYHElU1SQQvjFu7j8sR5G5jgwOnextjON8kI3+OtpKP0KD393PM7DaHo0Cnc/BJdfAnnZfcu6/H2hlJ0Bzt0bX7kWVlfCly/bd/3WhX/ml2un8dNry2hZ8G/++Hwd1rhegqnlfOLTc5ie73qvbOeyR7i7YjjTI8tZ0rDnrTQIbFnBWvdEphXmMPtrn+H0nI/eO1m9eiPFxXkkJSUcsEx7eyc1NQ2MHz9qn+XdrY10BPc+9i//C1c94OLGBy5n/O7XweKIJzPTi/0Q2n4k2i0iQ2tIugVGYxPsfBKWn45xaTpkZdKvA0C0YydbPDO49ZqxOIBowxre2JXL7Cnp2IDgq/dx+84gUZLoWvYMDz6zkS21PfytLJ8Yrn13Fu0hEHbjcYXZ8NxKEud+E8/mFbw47102d8Xo2dbIFs8z/HWzBXvRTL75lenEG5A8chKnT/US27aAXTvKOP30TNj1Nv/z9c/jbrZXNpEwupj0QziOrVoH5WV94WMY8MzLsHApxGJ94XPJuTB1Ikwqh2WroLUN0lL3rp8266vcOSvMpr/fya8r4sh2dbKhMkB+2Sae+eVCXr3oJ9x8pgeApKlXcNvUHpq2p5Hnt+GwA8Som7cDX+q5XD4rgfTUj34Qbm/3kZDgOWj4AKSkJNHU1EZXVzcJCXt7pfFpWex5FG1azK1/3MzJ37+Ls4ansb9aDbTtQ91uERl6QxBAQXj1j7CkClp2QNNJcNOl9O9SOIefwVWn17DgudfojkGsYSXPbCugqy4DKxbcWefyrQkp2ABn7khOGreKZbbRTBoWpaKliteeXkBpV4zmVU/ynVe3k/CpG7j1xEoe3zKai09Zzn0PNHHpr77HlzwRNv/pFv6UfS13XLD3oNgNxHpD9PQ4MHqjxMJhenpCEIoQ698U33Luv+45yv74S75SOvCX6u0V8IVP9f2+dCUseHvvc6EQPP405OdCbhbMnApL3oULzgLoYeH9v+Kh+W2M++4vuCgaR+kZ5zI3bwf/eayNsy6bgnvVM8yLAAR447e38/sXmyi/6fd83/EGv503jJt/cQ7D7REsC+JwpxZQNvrgwfFhGhqaKSrKHVDZnJwM6uub9wmg9wSq+OePHmC51UHCxo08t7ONvIvmMuW9ZB9o23uOSLtFZOgNwTBsF5bzzgZnCYxwwoVnYXn/+azkQspYx4vrICc/m7wMD66ENPLys8m1beWlVREKs+MAcOeXcWJJKslZxYwvckGkF39XD71Rg4i7lK/dcxe/uDiPrsrttIW38Psb/kvcJ8/D9u87uPLKm7jt1TaqHr+VL1x5I7f8dxcRAAt07dzA0qUVLN3QQkfdZpYtrWDZ+hZ6+/fVEk/jrjfuOqTwAQiGYE+HYXXl/stU7F6elwPNrXuWupn1jRu5dkYCGIARoraygneWbqO+pZYVS1ezbEvn7pD0MPu7t/CdUxMBSJh5OVflzOenD1TgO6TaHlwo1Ivb7frwgoDX6yEYDH3wCf9mHr3xDv6V8kXuuqIQK15y4iq5/cof89vXa+kBBt529xFpt4gMvaG5Mm9Ngi9dCxn14LccsFigrorlyxqhtZmOOivLlzVDZyPdif0KhdrZWdvOzjcf4ecZZZA9hos/fw7ep5aQM3YiYzP6mpB21tX83PMQP3ptFlfNTCNn0pf50TQf4T1dGmscaQX52AMdtEz4Ag9M6FscXvU4t1VO47orhu9+MSx0tAfJShnYQXd/+rf4QAPD9gzDjsXAesAzRVGCPh/tRjehUA+dHZ04/OEDlE3kpKuvxve6n1D0o9V7fw7lCqFhGPsMtgDo2bGQ+255mMXDv8ADN51OyjOLwOJh0udv5B8TnuNnP76JL628mt9872Ty9nkdBtr2oWm3iAy9oQmgpJFYxgOkH6SQlaTRM7jssmKMjf9l2/IT+MxlJVi2P8/OpXvKRNn1yhM8+FYjnqlXcsMlLfxwYc9+txbZOZ9f37mSyFgfd924hdNO6eHvj3cydnQCFmK0rK1hxI9+yTWR+Tzw9HbCgBGoo6KikR7Laq7dMIry3L4RVZ7xc7nh02U4IzW89uQmss6fQ3nifne7Xwnevl5NRhpMmwyVm/d93mGHyeV9v2/fCTmZB9iQJYGx51zEZ4o28Vd/Cxd9bhaut/7BIwfqt3qGMaHwHZa+soCd6zpxzj38Dm58vIuurm4SE70fWtbn8+Px9Bt0EtnOY798kqazb+CvnxtLCtDRr3xS+fnc+dfhvLgyjpT3h/ChtH0I2i0iQ8/EYdgx2t59gXsa3dBVy5bWOu5t8UCggZbiSbvL2Mi/4Ov8IvF3XLfcRdz+OlPBVfzjiRgXzkll5lVfYdikcZTleAgt/AMvTLuIG789Djc9LPj5L1kFOKdcwm1TIFL7Dvf9dgmXf2UYixrHcXZvBY2zruCrM9L3viihJjYs20Bg1mzKEwd+QXvmVFi0DD5xLpSPhk+eBy++0TchNSMNPnk+pKb0lV28fN9RcNH6NSypbKEmvZaYN5mM1DRysrIZNbKNJQ/+gXfbMjjv+jggSvOyZ3hyVSddLGfriadS4gVLVz1rVzdhG3cZXz5lP9diDlFOTiZ1dU0DCqC6umaKi/P3LrAX85UHf3/wlVLHcO6cvl8H1nY7zcv+O+TtFpGhZ1oA2dJHcsHVc7n8nAKi7/yJby+ewm+un4ht5xKerEz/QMUMA4jEiPa2s3beKzg6DWK2GJG6jSxan80F5+TiCW7ihftf4t7mOKbN8BJs2cmqpWGsxKhu7zt9E22v4tV/P88LVV7mfO3rzGn4G4ta0pl77QW89OBDXD+/jEuvOIdThnkgfjLfvGfyIbdtzEh4bSFsqIKyUjh5Kkyf3HdtyOPeOyfotYV9I+US9hzbo628+NBzcMU3OHv5v7i72krq6t+x3mHDbrWAJYn0pACL//YM2d87jeYFjZzy8zsZve5J7vnO8/gNKxgGMQMMtlOx+Fmi5POpn32bS4s+2ludkBBPOByhubmNjIzUA5ZraGjBZrPi8XzEU5cDbftfn6Da1Tbk7RaRoXdU3AkhtDuA7r1+4gfm3/jf+ivfvncpnk/fzB15L3Ldw82MPmUGc0tr+f3vluKzuZj81R/wtfjFPFoVz8SpE5g0Kg1j0f186c9BJo9PwopB44pN5N3wM67wPcfjLWO47MIxZNghsOAPfK9iFvd+qxwnYWqXzOOJbaV89YrxHMJZtw8IBuHBf/YNtz7xhH0nm3YH4PVF4OuCz12y7yTVrnYfzpRE4gAiAdpb/XT3hglHosQMCxYLWOO8ZOWlcKTm+sdiMSorq0hJSSYnJ32fW+9EIlHq6pro6uqmrKwEq/XA1/wAeta+zrP+CVx60geHYR+NbReRoXNUBBC9fjpCTpIT9n8nhCEVjdBrWIg73NvI7EcoBAvegdXroCBv76142trhpMl9vaL3X7Q/WsViMerqmmlqaiE+3oPDYSccjhAI9JCVlU52dsaHho+ISH9HRwAd52IxqG+EYC94PZCVYXaNPjrDMAgEgkQiEex2O/Hx6ouIyEejABIREVNovKqIiJhCASQiIqZQAImIiCkUQCIiYgoFkIiImEIBJCIiplAAiYiIKRRAIiJiCgWQiIiYQgEkIiKmUACJiIgpFEAiImIKBZCIiJhCASQiIqZQAImIiCkUQCIiYgoFkIiImEIBJCIiplAAiYiIKRRAIiJiCgWQiIiYwm52BT5ODMMwuwoiIgdlsViO2L4UQEMsFArR3t6BYRzZN1ZE5KMwjBh2u52UlGTs9qGNCAXQEIpGo7S1tZORkT7kb6SIyGAJBkM0N7eSnZ05pB+cdQ1oCHV3B0hISFD4iMgxxeVy4nTGEQr1Dul+FEBDKBqNYrfbzK6GiMghs9lsxGKxId2HAmiI6bqPiByLLBbLkA+cUgCJiIgpFEAiImIKBZCIiJhCASQiIqY4rgKoe9V/uP1Pq+g8wPPR5m1srIv0WxJh1+KFLGuMHonqvU+M7pqtVDWH9y6KdrBlxSoq6/cz9DHqY+eWenwDqGpv/XoWrKgneKA9d7fT0tV/dEsM385qav1DO+JFRKS/42aCSrT1XR6462necZXhq3p57xOxCL2pU/nWD84itepNbvv1Ts6+9ftcOcELWLB0LOHXdwb53a/OJPeIjpiOUF+1nZayYZQC0Ev9qpWsbYuDmnUknDWBQk+/zwcWO7Rt4q1WOGNaDu4DbDUWqOPdJRvZZU8n1LZ17xNGjKg7j2knl+Bu28GbizsZcdoMJmTH9T0frGHxkgjnzikh4bj6WCIiRyuLcTzcoKx9HQ/f9hhV6fG0Rk7k+zecxah46N66gPt+9Ry+ud/glouH4QTalj3FI9tdRF59lbf9Bhgh2tshJdUJgL3kHO647VyGDUI0t7d34PG4cTqd+z4R62DD4hWs3NpDQk4izvgshsfXU9GYw2lzSrFvX8YbGx2UzxzPiBRHv/V8VL62HN+YWZyUH/fBHfY0sXLBWto8DgKxPGbMKCE9DnrbdrBs8WZCpVM5dXQydqCndj1r2u3Etm2jptcAI0owCC53XwpbU0YwZ3YpyQojEfPFgrTUtxNwJJKTGY9jnyej9Ph6MDxeXL0+GloCkJhKbnLc7lX9NLUGiLkSyExzD7jX4fN1YbPZiI/3DHJj9joOAsjHW3f/jgWjv8gP5qaw9X9/47cvdFM60mDdeiunXnUlXzwpEzudLHjoMapPvIzPTUrE6I0RjkUxGubxjdvg5vsvJMcKNruDuD2TRztX8MAvllPwja9yfuGhJ9IBAwiIta7jpdV2ysflYq1ezjudXlKNMOHd04YcHiehlijFp09l1J4uScxP5cuvsCw6mgvnjiFtn3AIUf32Unakn8DJpW7aN6zm7ape0tKgqdlC0eQJTCiIx0qQHe+upTNvHOU5TogaRA0D/Jt4/k049bxReC1gtVqxWZU+IqaLtLP69QpqnCl4/W10ZZdzzpR09nwEjfm38/KL7Yw+N4fGxbvoTbDTVd+Bd+J0Ts5sZemSOqKJHujsIJA1mtMn7F33YI5EAB0Hp+ASOeVb36Z402bm/2sBK1Y2EnOnAAZeWzNL//0oTcuzyc7IpXRUKot+/FN8v7iD6ya4sOMgarOBNYbd6cL9/lNw7kzKJo8kJWmwX6YYXXWduDMS2bjZxyljSyja1EYvDhLSiynLsIHbT9VGGyX9zofFumqp7i3ihOQ61u4o5rTh/U/EOSmaNo3klla2r6umvt6P4XADBnHWALXr19Bd58XrSaAwy83a+QsInTGHqdl2rEDMYgGLgdVmx6HcETlqBKu3scUxnLmnFeLpruaVF3ZQPS6dUhdAlI6qXXTnl1HgTaPozBysVujZsJR5uzow8lIYPyuPBLeFmH878xc00TIundyj5Mh/lFTjMERqePquf7CwxkcD6Yw/YTJnJfd1UIuKRhJsq2dbYzfh3HiKZn6Ge0pn0pllo+I/f+LZTSGMnmq2boOHftmICyuZMy7lq7OzsAHEFXDapwuGotI0NHTQZenB397BapedtkguU0s6WV7lo6ZmF9HJmTS3Otg7LCBMw8adRItOpDy/lpff2UpT0Tgy94RmrJONSyqo7gzhx0NWdi4lrr4kSUo2iPT4afeHiSXEYc8bxzkXFBL0WmhYv4LNLVGMSAft7fDuom7sWIgvKGNSsff4GqUicsyJ0tHix50+GheAO4V0dzXtvii4bBBpZ+N2KD4tBTsWsEIk0M6OxjDpuYnYnPEk7N5SuDNA0OnGcxT9Ux9FVfmI7AVcfOONXD8rHkfxiZw8Np+c2Eb+u8RPdl4OJWUemnfEMfXCKRTY25n/98dZsCNKVtlEZs2cwszpRaSnFTLt5CnMmjmFScPiGfqxCHaKpp3MjFHppKTlUpLhJNhUzZoNTfgPcEI00rKFlbuSKB+VjCO9hLGJtby7voP3BsVZkxg9cyYziuKwpeRRmJFIgtHChppevAkJpKY7CHTYyBuVS5K1h+0V66juMPCm51BYmEthfjIeTxL5hbkUFeaSkxx3HPxxiBzrDELhKHaHY/f/ox27PUYk0negCO3ayS5PHiOTbUCUprXLef6V1azzJ5Cftud/OIa/topFFQEKxuUfVdd1j/0e0HsMuut3sH69C6O1nUCnnQ3rDayxRjpjGX1F/GtZuNTg9G+6yE6YQjYQranlH0kxJsyaTuF+kqenO0BcvGeQQylMoLOTltZuutv9bKyNYYlz4fEYdOxnBHYsUM+7i6vxTphFoRvARdHEUWx7eSWrM05mcnb/a0wGvV0dNDfbMXqChINWWprBYvgJGvF9RXqbqN5lUDzVjteZixeIdfqocBpkF+aTdBT9gYp83DnsViLhMDHisBImHLHjdFqBINur2kkrHbt75KqNzPITuagcgrVreXHJVlLPG05swzpW1LsZfdJEhqccXYf84+hQYyF5xERmz57OaRNzSM4q5bTZ0zl9VgkZu1sZWF3BphETmZpw8C29p+1VfnT+Lfx5Y+TDyx6KWJRuXxfBmAVHUiYj87y4krMYUZSCGwsZpcVk7/k78e1i2euraCmYxPSS+PfeMGtCIdNPTGL7m0tYtsPH3tlEFlyp2QwrzmdYtheXN41hxfkUF6USv3uAQ7ihgdbUHPI+ODZCRI4qdlLSvASaWgjEIOZvpTmSSGaSlVhHDVW+dEYV7f5HDoUI7j5nH+dyYItF6W3Yxsr6BE48teyoCx84rnpAMRpWvMqjzXEY/jq6G9t5/LEtWGKt7IyUAEHWLFxP9tRP0/mfu/j6Ezv6HbThO5ct6PvFXsRn7/gunxpmh9TZ/OTfJ+JKH+SXyeqhYOw48jrW09wdT5IrgIUQLfU+wvZ0oqEOata1UFAyhtrKdfiHncic8oy+c8B7N0J80QTmRNfw9uYa2vLHkmUHMPDXb2NtwIbR20XYH2Tt2jYsRoDOWCpeS4TG6ma8eWMJrV/Cc+s66D/99KX/VO/efBLj5pzE2KOpvy7yMeQuLmHUtgpefrkBV2+YhHETyLNHad5cR6ToBHJ2H57CTVW8ssKH02ulpytCxvgTSOjYiM8X5J1XmvoKWZMYe9o4hh9oIuERdhwMw+7jW/MGb8Umc/6ExH2f6N3KKy90Un7BJJKaqml25VOUcmRmnB5sGDYAwSa2NDgZlhZge6sVDzGcmVl4uuup81lIzskm/RCvGIYat1Nt5DIy+337jLaxtSpE5sgcXN0ddNsTSXYrXESODRG6O3qIurwkuiwQbuSteVtJPvMkxifu/cqXSI+fzh5wJ3rxDPBzs2EY+/3aGM0DOsZ9aACJiHwUYT9N7ZCc6R3QnJ4DCQaDzJ8/n7KyMoqLi/d5TvOARETkgxxeMjMPbxPNzc288sorFBcXU1hYODj1OkQKIBGRjxHDMNiwYQPLli1j1qxZlJSUmFYXBZCIyMdEOBxm4cKFNDc3c/HFF5OQkMDbb79NQUEB+fn5R7w+ugo9xHSFTUSOBp2dnfzvf//DMAwuueQSHA4Hzz77LG1tbaSnp+93nf2MTRhU6gENIYvFgmHoO3ZExHyRSISxY8cyZswYYrEY8+bNY+TIkUyaNGm/o+BisRgWy9BGhEbBDaGeniCBQIC0tFSzqyIiso+enh7c7v1PCDIMg4aGRjIzM7DZhm7aigJoiLW2thGLGbjdTiwWnfEUkaNbLBajuztAfLyHhATvkO5LAXQEhEIhwuEwsZheahE5ulmtVlwuJ3b70F+hUQCJiIgpdE5IRERMoQASERFTKIBERMQUCiARETGFAkhEREyhABIREVMogERExBQKIBERMYUCSERETKEAEhERUyiARETEFAogERExhQJIRERMoQASERFTKIBERMQUCiARETGFAkhEREyhABIREVMogERExBQKIBERMYUCSERETKEAEhERUyiARETEFAogERExhQJIRERMoQASERFTKIBERMQUCiARETGFAkhEREyhABIREVMogERExBQKIBERMYUCSERETKEAEhERU9h9Pr/ZdRARkY8hi2EYhtmVEBGRjx+dghMREVMogERExBQKIBERMYUCSERETKEAEhERUyiARETEFHazKyAiEg6HiUajZldjEFhwOuOwWEw/+RoAAAhJSURBVCwDXqPDB00tcKxPiLFaIS8bPO6Br6N5QCJiGsMwaGlpBcDhcJhcm8MXi8UIBkOkpibjcrkOWtYw4JmX4a13jv3w2cNhhwvPhplTB1ZePSARMU1HRydutwuv12t2VQZNNBqlsbGZ7OxMrNYDX+V4twIWvH0EK3YEhCPw1PNQlA8FuR9eXteARMQ0PT1B4uPjza7GoLLZbMTHewgGgwctV7H+CFXIBGsG2DYFkIiYxmKxHNL1kmOF1Wrlw65uhMNHqDImCEcGVk4BJCIiplAAiYiIKRRAIiJiCgWQiByTIsEAfn/33p/uAD0fcu0h2ryDzfV9hbp9fkIAHRU88WQFHQC9fnzdQ1zxITb2ZJiQ8sHlwyfAiP5zdGxwyhwoth2xqn2AhmGLyDEoyPJH7+Q3/2kiZWwBicEG1tRYGVGQistlx2YFjBiOsRdw65XlOHev1bX1LX55by2n/99n8T55H4snX8et07fz5psxZlyUysLbf8UTWV/noW+O41gYm1d+OkzN7Ps91g1vVcGlp0NnIUw2INoEj82HXsCZDZdOgL8/AjURwAalYyH0Fmw3aQ6wekAicgxycdLnLmRG0Tiu+OmN3HH1FArLz+OqE0J4z/gmd/36Rn46N4m2rn1H2CVP/xx3XV9G1w6Dc2/4PCVrFlHR0zdarbdiIUsSPsntVx8b4QOwcz280w6eDli0CWbPgdVPwn/ehF1OcIdgT7ZseAVe7YQJBaZWeR/qAYnIMcvwb+SJn/2Gl3rqaHTnkp2dRFtDExEK2LWjhbRhBe/1fsDHoocfZ+v4T3LV+d385yePsKgWltzWxY5dcPMfErAbq/jj08Xc/umiY+Lg2NkAY2fBhvngPQXyHZA+G0bFQYYXWtzwvUx4fjtkuMC3HJ7dtXtlK9id4NIpOBGRQ2fxjuYzP76Gk7Y+wjVPQHxpAZZl2+mKJrFhi43Rp/XvyyQy8ZThvHb73fzpe58nVpvEJ+75MZcm7y3hf+YOrq0LETviLflorKkwZTg4U6G3Bt72gfUpqJwGp9fD37bDtZ+AxCTIKYFpiVCxi772OcETD9k5wDZz6q8AEpFjlhHYxgsPPsy7XdtojeViKx5LacsbLG+wsbK7lM/k7XuIiy89k1v/NJOQZRcPh7fyrx/eyuv9LkQYrTsJn3KEG3EYRs2C4gDc9zKcPQUsVpjyKRiTACkj4FvTID0MaxfADgdc0a+tcQXgDkBuMVi3YUroKoBE5JhlceUx48KzGVf7EmteBZyjOGPSv/n9r+bjmfplRsa9b4XeKv75i8UM++7JYB/OJ2/+LnP73YYu+Mq9XN90JFtwGOxQYoNt/r2LbMDbj8Hmmfv2gPpz5UEpwChoWwbOUVD4JuwwYSCCAkhEjkFhOhs78Yf87FqzmtatNbRUbuGW38C1Z4yg+7GNTP9W3gcPcB1VLK+2MdEBRLbwr5vv4NX+PaC2WnrPOILNOBwReO45+MLlux9bINEDwz4LJyTu2wPaw50P146CtW/CqDxY+AIkFMBZk+DPy498L0gBJCLHnmgry17agGfaKFKsieSUZpLSMZqffD6BP/9kG9OvHsGK3z/OyB9ezslZe6+y+9dW0TJyBsMd8JajlCvu2vcaUNfTd/CN+mPr3nTWFLjkHIh1gCcIj/wFLGd+sAeUmwaeOHjuCci9GHqXQkUP2N6EqZ+Gc1v6BiscSQogETn22LI58+prOHP3w961O/nHCyu44/86SP3Ct7lmdhp16Q9z640P0n3H1zkr2wb0sm7lDvLKr8RD//NsETb/9yHuX9BC185asr6cgokDww5NDHatgxdeh7xLYfYWqI1BPuDIh8+XQ1IPhIG1r0OdH8o+DePq4cGlfT2e2E54dAF85QLY+UdYe/CbeA8qfSGdiJimvr6RnJysw95OtGEV81Z0k1c0hsnjUncHSJTOhjZs2RnsuczTtWsHrd4ChiUH2PxONe5J4yiIg1BzLTW+GI74FPKyvYf9ybyry4/VajnoV0088HfYPIijz1KHQ0INVIfBkQjJLshIguZqaO7dWy4pHaIt4H/f+g77wO9i/WFOPQkuPufDyymARMQ0gxVARxszAuhoMtAA0p0QRETEFAogERExhQJIRERMoQASERMZxGLHyo1vBi4SiWC1Hnws3UEuDx3zvJ6BlVMAiYhpvN54Ojo6OZ7GQoVCIYLBEC6X86DlZkwBy7E15WhA4uJgygkDK6tRcCJiqs5OH93dAWy2Y//zcCxmYLNZSU1NwW7/8MHcq9bB869Ba/sRqNwRkJ8Dl8yF4sKBlVcAichR4Xg5FFk+QrcmHIZjvfVWCwwgc/ehABIREVMc+31eERE5JimARETEFAogERExhQJIRERMoQASERFTWNvbWs2ug4iIfMzEYjEs937tPKOy8HKuv2wqHpcLq9WKEe6mpclHCCs2q0HEkUhesoX2xna6DSvEwJOaTponSmdzG+094E7yEhcK0BOzABbcySmkuC10t7YS9KST5gzSWu/DkppJqitEW2M3kVgvof7bi7cQaG2lx51GmsdKpKuNlqiXrOQ4LNEgbe/ff/wx87VRH1m4vZ7aaAp5cX5aoolkp8RhdLdRH3ST4eimKQB2I0o4YsHpshAJR4lG7SRmpeEJNNMYSyIv1cl7MxPCAZqbffQe9L1Nwt7d0fe+pqSRGR+lo8XX771NIi7Qsf/3tSmEO81JT1P/7aXiCnYQ3N/7CvAxfW8H4mDvf26am6ivhYZD+RvY3/uf5t7P/9f7/gYSHRyHk/ZNZ3S3Ue+3Ee+yExfvweJrpdsZj9Mah9d9/PwP9J8bFYlEaG9vZ9u2bfw/fJ5NaC7rapQAAAAASUVORK5CYII=;imageBorder=default;dashed=1;" vertex="1" parent="1">
          <mxGeometry x="880" y="111.66" width="246" height="124.18" as="geometry" />
        </mxCell>
        <mxCell id="6PJePOH17XFQJYxahg0o-33" value="" style="edgeStyle=orthogonalEdgeStyle;rounded=0;orthogonalLoop=1;jettySize=auto;html=1;" edge="1" parent="1" source="6PJePOH17XFQJYxahg0o-29" target="6PJePOH17XFQJYxahg0o-32">
          <mxGeometry relative="1" as="geometry" />
        </mxCell>
        <mxCell id="6PJePOH17XFQJYxahg0o-29" value="弹出审批弹框" style="whiteSpace=wrap;html=1;rounded=1;glass=0;strokeWidth=1;shadow=0;" vertex="1" parent="1">
          <mxGeometry x="690" y="157.5" width="120" height="32.5" as="geometry" />
        </mxCell>
        <mxCell id="6PJePOH17XFQJYxahg0o-37" value="确定" style="edgeStyle=orthogonalEdgeStyle;rounded=0;orthogonalLoop=1;jettySize=auto;html=1;endArrow=classic;endFill=1;" edge="1" parent="1" source="6PJePOH17XFQJYxahg0o-32" target="6PJePOH17XFQJYxahg0o-36">
          <mxGeometry relative="1" as="geometry" />
        </mxCell>
        <mxCell id="6PJePOH17XFQJYxahg0o-39" value="取消" style="edgeStyle=orthogonalEdgeStyle;rounded=0;orthogonalLoop=1;jettySize=auto;html=1;endArrow=classic;endFill=1;" edge="1" parent="1" source="6PJePOH17XFQJYxahg0o-32" target="6PJePOH17XFQJYxahg0o-38">
          <mxGeometry relative="1" as="geometry" />
        </mxCell>
        <mxCell id="6PJePOH17XFQJYxahg0o-32" value="选择审批结果，输入审批备注内容" style="whiteSpace=wrap;html=1;rounded=1;glass=0;strokeWidth=1;shadow=0;" vertex="1" parent="1">
          <mxGeometry x="690" y="250" width="120" height="43.75" as="geometry" />
        </mxCell>
        <mxCell id="6PJePOH17XFQJYxahg0o-41" value="成功" style="edgeStyle=orthogonalEdgeStyle;rounded=0;orthogonalLoop=1;jettySize=auto;html=1;endArrow=classic;endFill=1;" edge="1" parent="1" source="6PJePOH17XFQJYxahg0o-36" target="6PJePOH17XFQJYxahg0o-40">
          <mxGeometry relative="1" as="geometry" />
        </mxCell>
        <mxCell id="6PJePOH17XFQJYxahg0o-43" value="失败" style="edgeStyle=orthogonalEdgeStyle;rounded=0;orthogonalLoop=1;jettySize=auto;html=1;endArrow=classic;endFill=1;" edge="1" parent="1" source="6PJePOH17XFQJYxahg0o-36" target="6PJePOH17XFQJYxahg0o-42">
          <mxGeometry relative="1" as="geometry" />
        </mxCell>
        <mxCell id="6PJePOH17XFQJYxahg0o-36" value="调用审批接口" style="whiteSpace=wrap;html=1;rounded=1;glass=0;strokeWidth=1;shadow=0;" vertex="1" parent="1">
          <mxGeometry x="690" y="360" width="120" height="30" as="geometry" />
        </mxCell>
        <mxCell id="6PJePOH17XFQJYxahg0o-38" value="关闭弹框" style="whiteSpace=wrap;html=1;rounded=1;glass=0;strokeWidth=1;shadow=0;fillColor=#f8cecc;strokeColor=#b85450;" vertex="1" parent="1">
          <mxGeometry x="880" y="255" width="120" height="33.75" as="geometry" />
        </mxCell>
        <mxCell id="6PJePOH17XFQJYxahg0o-40" value="状态流转为审批中，更新列表数据" style="whiteSpace=wrap;html=1;rounded=1;glass=0;strokeWidth=1;shadow=0;" vertex="1" parent="1">
          <mxGeometry x="690" y="460" width="120" height="35" as="geometry" />
        </mxCell>
        <mxCell id="6PJePOH17XFQJYxahg0o-42" value="提示失败原因，不做操作，结束" style="whiteSpace=wrap;html=1;rounded=1;glass=0;strokeWidth=1;shadow=0;fillColor=#f8cecc;strokeColor=#b85450;" vertex="1" parent="1">
          <mxGeometry x="880" y="356.25" width="120" height="37.5" as="geometry" />
        </mxCell>
      </root>
    </mxGraphModel>
  </diagram>
</mxfile>
